<mxfile host="app.diagrams.net" agent="Mozilla/5.0 (X11; Linux x86_64) AppleWebKit/537.36 (KHTML, like Gecko) Chrome/121.0.0.0 Safari/537.36" version="28.2.3">
  <diagram name="Página-1" id="ZoH1qGiTkQQqBr2M1ZjS">
    <mxGraphModel dx="1924" dy="1782" grid="1" gridSize="10" guides="1" tooltips="1" connect="1" arrows="1" fold="1" page="1" pageScale="1" pageWidth="827" pageHeight="1169" math="0" shadow="0">
      <root>
        <mxCell id="0" />
        <mxCell id="1" parent="0" />
        <mxCell id="NlZe7WwoRSdF8i1WgA54-32" value="" style="rounded=0;whiteSpace=wrap;html=1;" vertex="1" parent="1">
          <mxGeometry x="-340" y="-10" width="1570" height="590" as="geometry" />
        </mxCell>
        <mxCell id="7PJYwHTWWEtQcOT2h8YD-6" value="" style="endArrow=none;dashed=1;html=1;dashPattern=1 3;strokeWidth=2;rounded=0;exitX=0.5;exitY=0;exitDx=0;exitDy=0;entryX=0.5;entryY=1;entryDx=0;entryDy=0;" parent="1" source="7PJYwHTWWEtQcOT2h8YD-3" target="7PJYwHTWWEtQcOT2h8YD-2" edge="1">
          <mxGeometry width="50" height="50" relative="1" as="geometry">
            <mxPoint x="20" y="460" as="sourcePoint" />
            <mxPoint x="70" y="410" as="targetPoint" />
          </mxGeometry>
        </mxCell>
        <mxCell id="7PJYwHTWWEtQcOT2h8YD-15" value="" style="rounded=0;whiteSpace=wrap;html=1;rotation=90;" parent="1" vertex="1">
          <mxGeometry x="-47.18" y="149.69" width="84.37" height="10" as="geometry" />
        </mxCell>
        <mxCell id="7PJYwHTWWEtQcOT2h8YD-14" value="" style="endArrow=none;dashed=1;html=1;dashPattern=1 3;strokeWidth=2;rounded=0;exitX=0.5;exitY=0;exitDx=0;exitDy=0;entryX=0.5;entryY=1;entryDx=0;entryDy=0;" parent="1" source="7PJYwHTWWEtQcOT2h8YD-13" target="7PJYwHTWWEtQcOT2h8YD-12" edge="1">
          <mxGeometry width="50" height="50" relative="1" as="geometry">
            <mxPoint x="250" y="460" as="sourcePoint" />
            <mxPoint x="300" y="410" as="targetPoint" />
          </mxGeometry>
        </mxCell>
        <mxCell id="7PJYwHTWWEtQcOT2h8YD-2" value=":Interface da homepage" style="rounded=1;whiteSpace=wrap;html=1;" parent="1" vertex="1">
          <mxGeometry x="-60" y="30" width="110" height="40" as="geometry" />
        </mxCell>
        <mxCell id="7PJYwHTWWEtQcOT2h8YD-3" value=":interface da homepage" style="rounded=1;whiteSpace=wrap;html=1;" parent="1" vertex="1">
          <mxGeometry x="-58" y="503" width="110" height="40" as="geometry" />
        </mxCell>
        <mxCell id="7PJYwHTWWEtQcOT2h8YD-7" value=":Participante" style="shape=umlActor;verticalLabelPosition=bottom;verticalAlign=top;html=1;outlineConnect=0;" parent="1" vertex="1">
          <mxGeometry x="-254" y="10" width="30" height="60" as="geometry" />
        </mxCell>
        <mxCell id="7PJYwHTWWEtQcOT2h8YD-8" value="Participante" style="shape=umlActor;verticalLabelPosition=bottom;verticalAlign=top;html=1;outlineConnect=0;" parent="1" vertex="1">
          <mxGeometry x="-256" y="484" width="30" height="60" as="geometry" />
        </mxCell>
        <mxCell id="7PJYwHTWWEtQcOT2h8YD-9" value="" style="endArrow=none;dashed=1;html=1;dashPattern=1 3;strokeWidth=2;rounded=0;exitX=0.5;exitY=0.5;exitDx=0;exitDy=0;exitPerimeter=0;entryX=0.5;entryY=0.5;entryDx=0;entryDy=0;entryPerimeter=0;" parent="1" source="7PJYwHTWWEtQcOT2h8YD-7" target="7PJYwHTWWEtQcOT2h8YD-8" edge="1">
          <mxGeometry width="50" height="50" relative="1" as="geometry">
            <mxPoint x="-174" y="390" as="sourcePoint" />
            <mxPoint x="-124" y="340" as="targetPoint" />
          </mxGeometry>
        </mxCell>
        <mxCell id="7PJYwHTWWEtQcOT2h8YD-11" value="1.CriarEvento(&lt;span style=&quot;color: light-dark(rgb(0, 0, 0), rgb(255, 255, 255)); background-color: transparent;&quot;&gt;)&lt;/span&gt;" style="text;html=1;align=center;verticalAlign=middle;whiteSpace=wrap;rounded=0;" parent="1" vertex="1">
          <mxGeometry x="-180" y="100" width="60" height="30" as="geometry" />
        </mxCell>
        <mxCell id="7PJYwHTWWEtQcOT2h8YD-12" value=":Controller" style="rounded=1;whiteSpace=wrap;html=1;" parent="1" vertex="1">
          <mxGeometry x="171" y="30" width="110" height="40" as="geometry" />
        </mxCell>
        <mxCell id="7PJYwHTWWEtQcOT2h8YD-13" value=":Controller" style="rounded=1;whiteSpace=wrap;html=1;" parent="1" vertex="1">
          <mxGeometry x="173" y="503" width="110" height="40" as="geometry" />
        </mxCell>
        <mxCell id="7PJYwHTWWEtQcOT2h8YD-10" value="" style="endArrow=classic;html=1;rounded=0;" parent="1" edge="1">
          <mxGeometry width="50" height="50" relative="1" as="geometry">
            <mxPoint x="-240" y="120" as="sourcePoint" />
            <mxPoint x="-10" y="120" as="targetPoint" />
          </mxGeometry>
        </mxCell>
        <mxCell id="7PJYwHTWWEtQcOT2h8YD-39" value="" style="endArrow=none;dashed=1;html=1;dashPattern=1 3;strokeWidth=2;rounded=0;exitX=0.5;exitY=0.125;exitDx=0;exitDy=0;entryX=0.5;entryY=1;entryDx=0;entryDy=0;exitPerimeter=0;" parent="1" source="7PJYwHTWWEtQcOT2h8YD-42" edge="1">
          <mxGeometry width="50" height="50" relative="1" as="geometry">
            <mxPoint x="441" y="814" as="sourcePoint" />
            <mxPoint x="439" y="69" as="targetPoint" />
          </mxGeometry>
        </mxCell>
        <mxCell id="7PJYwHTWWEtQcOT2h8YD-41" value=":Event" style="rounded=1;whiteSpace=wrap;html=1;" parent="1" vertex="1">
          <mxGeometry x="384" y="30" width="110" height="40" as="geometry" />
        </mxCell>
        <mxCell id="7PJYwHTWWEtQcOT2h8YD-42" value=":Event" style="rounded=1;whiteSpace=wrap;html=1;" parent="1" vertex="1">
          <mxGeometry x="386" y="503" width="110" height="40" as="geometry" />
        </mxCell>
        <mxCell id="7PJYwHTWWEtQcOT2h8YD-66" value="" style="rounded=0;whiteSpace=wrap;html=1;rotation=90;" parent="1" vertex="1">
          <mxGeometry x="-89.8" y="190.31" width="169.59" height="10" as="geometry" />
        </mxCell>
        <mxCell id="7PJYwHTWWEtQcOT2h8YD-73" value="alt" style="shape=umlFrame;whiteSpace=wrap;html=1;pointerEvents=0;width=40;height=15;" parent="1" vertex="1">
          <mxGeometry x="-290" y="126" width="1370" height="160" as="geometry" />
        </mxCell>
        <mxCell id="7PJYwHTWWEtQcOT2h8YD-75" value="[Participante não logado]" style="text;html=1;align=center;verticalAlign=middle;whiteSpace=wrap;rounded=0;" parent="1" vertex="1">
          <mxGeometry x="-247" y="126.37" width="160" height="30" as="geometry" />
        </mxCell>
        <mxCell id="7PJYwHTWWEtQcOT2h8YD-93" value="" style="endArrow=classic;html=1;rounded=0;exitX=0.708;exitY=0.32;exitDx=0;exitDy=0;exitPerimeter=0;entryX=0.381;entryY=-0.166;entryDx=0;entryDy=0;entryPerimeter=0;" parent="1" edge="1">
          <mxGeometry width="50" height="50" relative="1" as="geometry">
            <mxPoint x="-3.2000000000000455" y="137.36920000000015" as="sourcePoint" />
            <mxPoint x="1.665000000000191" y="165.63856999999985" as="targetPoint" />
            <Array as="points">
              <mxPoint x="30" y="137" />
              <mxPoint x="30" y="164" />
            </Array>
          </mxGeometry>
        </mxCell>
        <mxCell id="7PJYwHTWWEtQcOT2h8YD-91" value="" style="rounded=0;whiteSpace=wrap;html=1;rotation=90;" parent="1" vertex="1">
          <mxGeometry x="-178.73" y="278.64" width="347.48" height="10" as="geometry" />
        </mxCell>
        <mxCell id="7PJYwHTWWEtQcOT2h8YD-92" value="2.IniciarCadastro&lt;span style=&quot;background-color: transparent; color: light-dark(rgb(0, 0, 0), rgb(255, 255, 255));&quot;&gt;(&lt;/span&gt;&lt;span style=&quot;background-color: transparent; color: light-dark(rgb(0, 0, 0), rgb(255, 255, 255));&quot;&gt;)&lt;/span&gt;" style="text;html=1;align=center;verticalAlign=middle;whiteSpace=wrap;rounded=0;" parent="1" vertex="1">
          <mxGeometry x="52" y="135.31" width="60" height="20" as="geometry" />
        </mxCell>
        <mxCell id="7PJYwHTWWEtQcOT2h8YD-94" value="" style="rounded=0;whiteSpace=wrap;html=1;rotation=90;" parent="1" vertex="1">
          <mxGeometry x="208.31" y="251.66000000000003" width="37.4" height="10" as="geometry" />
        </mxCell>
        <mxCell id="7PJYwHTWWEtQcOT2h8YD-103" value="" style="endArrow=none;dashed=1;html=1;strokeWidth=1;rounded=0;entryX=0.942;entryY=0.931;entryDx=0;entryDy=0;entryPerimeter=0;endFill=0;startArrow=open;startFill=0;" parent="1" edge="1">
          <mxGeometry width="50" height="50" relative="1" as="geometry">
            <mxPoint x="-242" y="176" as="sourcePoint" />
            <mxPoint x="-11" y="176" as="targetPoint" />
          </mxGeometry>
        </mxCell>
        <mxCell id="7PJYwHTWWEtQcOT2h8YD-104" value="&lt;span style=&quot;background-color: transparent; color: light-dark(rgb(0, 0, 0), rgb(255, 255, 255));&quot;&gt;3.Exibir tela de login&lt;/span&gt;" style="text;html=1;align=center;verticalAlign=middle;whiteSpace=wrap;rounded=0;" parent="1" vertex="1">
          <mxGeometry x="-215" y="148" width="170" height="40" as="geometry" />
        </mxCell>
        <mxCell id="7PJYwHTWWEtQcOT2h8YD-105" value="" style="endArrow=classic;html=1;rounded=0;" parent="1" edge="1">
          <mxGeometry width="50" height="50" relative="1" as="geometry">
            <mxPoint x="-240" y="224" as="sourcePoint" />
            <mxPoint x="-10" y="224" as="targetPoint" />
          </mxGeometry>
        </mxCell>
        <mxCell id="7PJYwHTWWEtQcOT2h8YD-106" value="4.PreencherDados(user_name,email,&lt;br&gt;fone,password,birthday)" style="text;html=1;align=center;verticalAlign=middle;whiteSpace=wrap;rounded=0;" parent="1" vertex="1">
          <mxGeometry x="-156" y="181" width="50" height="51" as="geometry" />
        </mxCell>
        <mxCell id="7PJYwHTWWEtQcOT2h8YD-108" value="5.CriarUsuario&lt;span style=&quot;background-color: transparent; color: light-dark(rgb(0, 0, 0), rgb(255, 255, 255));&quot;&gt;(&lt;/span&gt;user_name,email,&lt;br&gt;fone,password,birthday&lt;span style=&quot;background-color: transparent; color: light-dark(rgb(0, 0, 0), rgb(255, 255, 255));&quot;&gt;)&lt;/span&gt;" style="text;html=1;align=center;verticalAlign=middle;whiteSpace=wrap;rounded=0;" parent="1" vertex="1">
          <mxGeometry x="80" y="210" width="60" height="30" as="geometry" />
        </mxCell>
        <mxCell id="7PJYwHTWWEtQcOT2h8YD-109" value="" style="endArrow=classic;html=1;rounded=0;exitX=0.194;exitY=-0.034;exitDx=0;exitDy=0;exitPerimeter=0;" parent="1" edge="1">
          <mxGeometry width="50" height="50" relative="1" as="geometry">
            <mxPoint y="239" as="sourcePoint" />
            <mxPoint x="220" y="240" as="targetPoint" />
            <Array as="points">
              <mxPoint x="140" y="240" />
            </Array>
          </mxGeometry>
        </mxCell>
        <mxCell id="7PJYwHTWWEtQcOT2h8YD-112" value="" style="endArrow=none;dashed=1;html=1;dashPattern=1 3;strokeWidth=2;rounded=0;exitX=0.5;exitY=0.125;exitDx=0;exitDy=0;entryX=0.5;entryY=1;entryDx=0;entryDy=0;exitPerimeter=0;" parent="1" source="7PJYwHTWWEtQcOT2h8YD-114" edge="1">
          <mxGeometry width="50" height="50" relative="1" as="geometry">
            <mxPoint x="788" y="814" as="sourcePoint" />
            <mxPoint x="786" y="69" as="targetPoint" />
          </mxGeometry>
        </mxCell>
        <mxCell id="7PJYwHTWWEtQcOT2h8YD-113" value=":User" style="rounded=1;whiteSpace=wrap;html=1;" parent="1" vertex="1">
          <mxGeometry x="731" y="30" width="110" height="40" as="geometry" />
        </mxCell>
        <mxCell id="7PJYwHTWWEtQcOT2h8YD-114" value=":User" style="rounded=1;whiteSpace=wrap;html=1;" parent="1" vertex="1">
          <mxGeometry x="733" y="503" width="110" height="40" as="geometry" />
        </mxCell>
        <mxCell id="7PJYwHTWWEtQcOT2h8YD-115" value="" style="rounded=0;whiteSpace=wrap;html=1;rotation=90;" parent="1" vertex="1">
          <mxGeometry x="765.58" y="257.42" width="40.83" height="10" as="geometry" />
        </mxCell>
        <mxCell id="7PJYwHTWWEtQcOT2h8YD-117" value="6.CriarUsuario&lt;span style=&quot;color: light-dark(rgb(0, 0, 0), rgb(255, 255, 255)); background-color: transparent;&quot;&gt;(&lt;/span&gt;user_name,email,fone,password,birthday&lt;span style=&quot;color: light-dark(rgb(0, 0, 0), rgb(255, 255, 255)); background-color: transparent;&quot;&gt;)&lt;/span&gt;" style="text;html=1;align=center;verticalAlign=middle;whiteSpace=wrap;rounded=0;" parent="1" vertex="1">
          <mxGeometry x="295" y="225" width="288" height="30" as="geometry" />
        </mxCell>
        <mxCell id="7PJYwHTWWEtQcOT2h8YD-118" value="" style="endArrow=classic;html=1;rounded=0;exitX=0.194;exitY=-0.034;exitDx=0;exitDy=0;exitPerimeter=0;entryX=0.131;entryY=1.123;entryDx=0;entryDy=0;entryPerimeter=0;" parent="1" target="7PJYwHTWWEtQcOT2h8YD-115" edge="1">
          <mxGeometry width="50" height="50" relative="1" as="geometry">
            <mxPoint x="240" y="247.39" as="sourcePoint" />
            <mxPoint x="630" y="252" as="targetPoint" />
            <Array as="points" />
          </mxGeometry>
        </mxCell>
        <mxCell id="7PJYwHTWWEtQcOT2h8YD-119" value="" style="endArrow=open;dashed=1;html=1;rounded=0;endFill=0;strokeWidth=1;strokeColor=default;entryX=0;entryY=0.5;entryDx=0;entryDy=0;" parent="1" target="7PJYwHTWWEtQcOT2h8YD-124" edge="1">
          <mxGeometry width="50" height="50" relative="1" as="geometry">
            <mxPoint x="791" y="260" as="sourcePoint" />
            <mxPoint x="911" y="260" as="targetPoint" />
          </mxGeometry>
        </mxCell>
        <mxCell id="7PJYwHTWWEtQcOT2h8YD-121" value="&amp;lt;&amp;lt;create&amp;gt;&amp;gt;" style="text;html=1;align=center;verticalAlign=middle;whiteSpace=wrap;rounded=0;" parent="1" vertex="1">
          <mxGeometry x="821" y="238.78999999999996" width="60" height="30" as="geometry" />
        </mxCell>
        <mxCell id="7PJYwHTWWEtQcOT2h8YD-124" value="Usuario:User" style="rounded=1;whiteSpace=wrap;html=1;" parent="1" vertex="1">
          <mxGeometry x="901" y="239.82999999999998" width="110" height="40" as="geometry" />
        </mxCell>
        <mxCell id="7PJYwHTWWEtQcOT2h8YD-125" value="Usuario:User" style="rounded=1;whiteSpace=wrap;html=1;" parent="1" vertex="1">
          <mxGeometry x="901" y="504" width="110" height="40" as="geometry" />
        </mxCell>
        <mxCell id="7PJYwHTWWEtQcOT2h8YD-126" value="" style="endArrow=none;dashed=1;html=1;dashPattern=1 3;strokeWidth=2;rounded=0;exitX=0.5;exitY=0;exitDx=0;exitDy=0;" parent="1" source="7PJYwHTWWEtQcOT2h8YD-125" target="7PJYwHTWWEtQcOT2h8YD-124" edge="1">
          <mxGeometry width="50" height="50" relative="1" as="geometry">
            <mxPoint x="961" y="1428.857142857143" as="sourcePoint" />
            <mxPoint x="961" y="600" as="targetPoint" />
          </mxGeometry>
        </mxCell>
        <mxCell id="7PJYwHTWWEtQcOT2h8YD-128" value="" style="endArrow=open;dashed=1;html=1;rounded=0;entryX=0.75;entryY=0;entryDx=0;entryDy=0;exitX=0.637;exitY=1.133;exitDx=0;exitDy=0;exitPerimeter=0;startArrow=none;startFill=0;endFill=0;" parent="1" source="7PJYwHTWWEtQcOT2h8YD-115" target="7PJYwHTWWEtQcOT2h8YD-94" edge="1">
          <mxGeometry width="50" height="50" relative="1" as="geometry">
            <mxPoint x="690" y="150" as="sourcePoint" />
            <mxPoint x="380" y="170" as="targetPoint" />
          </mxGeometry>
        </mxCell>
        <mxCell id="7PJYwHTWWEtQcOT2h8YD-129" value="7.Confirmação da criação do usuario" style="text;html=1;align=center;verticalAlign=middle;whiteSpace=wrap;rounded=0;" parent="1" vertex="1">
          <mxGeometry x="270" y="257.41999999999996" width="288" height="30" as="geometry" />
        </mxCell>
        <mxCell id="7PJYwHTWWEtQcOT2h8YD-137" value="" style="endArrow=open;html=1;rounded=0;exitX=0.36;exitY=0.79;exitDx=0;exitDy=0;exitPerimeter=0;endFill=0;dashed=1;" parent="1" edge="1">
          <mxGeometry width="50" height="50" relative="1" as="geometry">
            <mxPoint x="222.05000000000013" y="270.3399999999996" as="sourcePoint" />
            <mxPoint x="-2.049999999999997" y="268.65999999999997" as="targetPoint" />
            <Array as="points" />
          </mxGeometry>
        </mxCell>
        <mxCell id="7PJYwHTWWEtQcOT2h8YD-138" value="8.Retorno com o login" style="text;html=1;align=center;verticalAlign=middle;whiteSpace=wrap;rounded=0;" parent="1" vertex="1">
          <mxGeometry x="17.950000000000003" y="262.65999999999997" width="180" height="30" as="geometry" />
        </mxCell>
        <mxCell id="7PJYwHTWWEtQcOT2h8YD-139" value="" style="endArrow=none;dashed=1;html=1;strokeWidth=1;rounded=0;entryX=0.942;entryY=0.931;entryDx=0;entryDy=0;entryPerimeter=0;endFill=0;startArrow=open;startFill=0;" parent="1" edge="1">
          <mxGeometry width="50" height="50" relative="1" as="geometry">
            <mxPoint x="-238.37" y="279.66" as="sourcePoint" />
            <mxPoint x="-7.3700000000000045" y="279.66" as="targetPoint" />
          </mxGeometry>
        </mxCell>
        <mxCell id="7PJYwHTWWEtQcOT2h8YD-140" value="&lt;span style=&quot;background-color: transparent; color: light-dark(rgb(0, 0, 0), rgb(255, 255, 255));&quot;&gt;9.Exibir tela anterior ao login&lt;/span&gt;" style="text;html=1;align=center;verticalAlign=middle;whiteSpace=wrap;rounded=0;" parent="1" vertex="1">
          <mxGeometry x="-211.37" y="251.66000000000003" width="170" height="40" as="geometry" />
        </mxCell>
        <mxCell id="7PJYwHTWWEtQcOT2h8YD-187" value="" style="endArrow=none;dashed=1;html=1;dashPattern=1 3;strokeWidth=2;rounded=0;exitX=0.5;exitY=0.125;exitDx=0;exitDy=0;entryX=0.5;entryY=1;entryDx=0;entryDy=0;exitPerimeter=0;" parent="1" source="7PJYwHTWWEtQcOT2h8YD-189" edge="1">
          <mxGeometry width="50" height="50" relative="1" as="geometry">
            <mxPoint x="1127" y="814" as="sourcePoint" />
            <mxPoint x="1125" y="69" as="targetPoint" />
          </mxGeometry>
        </mxCell>
        <mxCell id="7PJYwHTWWEtQcOT2h8YD-188" value=":WalletEvent" style="rounded=1;whiteSpace=wrap;html=1;" parent="1" vertex="1">
          <mxGeometry x="1070" y="30" width="110" height="40" as="geometry" />
        </mxCell>
        <mxCell id="7PJYwHTWWEtQcOT2h8YD-189" value=":WalletEvent" style="rounded=1;whiteSpace=wrap;html=1;" parent="1" vertex="1">
          <mxGeometry x="1072" y="503" width="110" height="40" as="geometry" />
        </mxCell>
        <mxCell id="NlZe7WwoRSdF8i1WgA54-3" value="" style="endArrow=classic;html=1;rounded=0;exitX=0.708;exitY=0.32;exitDx=0;exitDy=0;exitPerimeter=0;entryX=0.381;entryY=-0.166;entryDx=0;entryDy=0;entryPerimeter=0;" edge="1" parent="1">
          <mxGeometry width="50" height="50" relative="1" as="geometry">
            <mxPoint x="-1.2000000000000455" y="292.05920000000015" as="sourcePoint" />
            <mxPoint x="3.665000000000191" y="320.32856999999984" as="targetPoint" />
            <Array as="points">
              <mxPoint x="32" y="291.69" />
              <mxPoint x="32" y="318.69" />
            </Array>
          </mxGeometry>
        </mxCell>
        <mxCell id="NlZe7WwoRSdF8i1WgA54-4" value="2.IniciarCriaçãoEvento&lt;span style=&quot;background-color: transparent; color: light-dark(rgb(0, 0, 0), rgb(255, 255, 255));&quot;&gt;(&lt;/span&gt;&lt;span style=&quot;background-color: transparent; color: light-dark(rgb(0, 0, 0), rgb(255, 255, 255));&quot;&gt;)&lt;/span&gt;" style="text;html=1;align=center;verticalAlign=middle;whiteSpace=wrap;rounded=0;" vertex="1" parent="1">
          <mxGeometry x="69" y="293" width="60" height="20" as="geometry" />
        </mxCell>
        <mxCell id="NlZe7WwoRSdF8i1WgA54-5" value="" style="endArrow=none;dashed=1;html=1;strokeWidth=1;rounded=0;entryX=0.942;entryY=0.931;entryDx=0;entryDy=0;entryPerimeter=0;endFill=0;startArrow=open;startFill=0;" edge="1" parent="1">
          <mxGeometry width="50" height="50" relative="1" as="geometry">
            <mxPoint x="-240" y="330.69" as="sourcePoint" />
            <mxPoint x="-9" y="330.69" as="targetPoint" />
          </mxGeometry>
        </mxCell>
        <mxCell id="NlZe7WwoRSdF8i1WgA54-6" value="&lt;span style=&quot;background-color: transparent; color: light-dark(rgb(0, 0, 0), rgb(255, 255, 255));&quot;&gt;3.Exibir tela de Criação de evento&lt;/span&gt;" style="text;html=1;align=center;verticalAlign=middle;whiteSpace=wrap;rounded=0;" vertex="1" parent="1">
          <mxGeometry x="-213" y="302.69" width="203" height="40" as="geometry" />
        </mxCell>
        <mxCell id="NlZe7WwoRSdF8i1WgA54-7" value="" style="endArrow=classic;html=1;rounded=0;" edge="1" parent="1">
          <mxGeometry width="50" height="50" relative="1" as="geometry">
            <mxPoint x="-240" y="383" as="sourcePoint" />
            <mxPoint x="-10" y="383" as="targetPoint" />
          </mxGeometry>
        </mxCell>
        <mxCell id="NlZe7WwoRSdF8i1WgA54-8" value="4.PreencherDados(event_name,ead, address,event_date,buy_time_limit, capacity,description,participant)" style="text;html=1;align=center;verticalAlign=middle;whiteSpace=wrap;rounded=0;" vertex="1" parent="1">
          <mxGeometry x="-260" y="321" width="250" height="80" as="geometry" />
        </mxCell>
        <mxCell id="NlZe7WwoRSdF8i1WgA54-9" value="" style="rounded=0;whiteSpace=wrap;html=1;rotation=90;" vertex="1" parent="1">
          <mxGeometry x="208.31" y="402.66" width="37.4" height="10" as="geometry" />
        </mxCell>
        <mxCell id="NlZe7WwoRSdF8i1WgA54-10" value="5.CriarEvento&lt;span style=&quot;background-color: transparent; color: light-dark(rgb(0, 0, 0), rgb(255, 255, 255));&quot;&gt;(&lt;/span&gt;event_name,ead, address,event_date,buy_time_limit, capacity,description,participant)" style="text;html=1;align=center;verticalAlign=middle;whiteSpace=wrap;rounded=0;" vertex="1" parent="1">
          <mxGeometry x="80" y="352" width="60" height="30" as="geometry" />
        </mxCell>
        <mxCell id="NlZe7WwoRSdF8i1WgA54-11" value="" style="endArrow=classic;html=1;rounded=0;exitX=0.194;exitY=-0.034;exitDx=0;exitDy=0;exitPerimeter=0;" edge="1" parent="1">
          <mxGeometry width="50" height="50" relative="1" as="geometry">
            <mxPoint y="390" as="sourcePoint" />
            <mxPoint x="220" y="391" as="targetPoint" />
            <Array as="points">
              <mxPoint x="140" y="391" />
            </Array>
          </mxGeometry>
        </mxCell>
        <mxCell id="NlZe7WwoRSdF8i1WgA54-13" value="" style="rounded=0;whiteSpace=wrap;html=1;rotation=90;" vertex="1" parent="1">
          <mxGeometry x="419.88" y="412.42" width="40.83" height="10" as="geometry" />
        </mxCell>
        <mxCell id="NlZe7WwoRSdF8i1WgA54-14" value="6.CriarEvento&lt;span style=&quot;background-color: transparent;&quot;&gt;(&lt;/span&gt;event_name,ead, address,event_date,buy_time_limit, capacity,description,participant)" style="text;html=1;align=center;verticalAlign=middle;whiteSpace=wrap;rounded=0;" vertex="1" parent="1">
          <mxGeometry x="189.3" y="363" width="288" height="30" as="geometry" />
        </mxCell>
        <mxCell id="NlZe7WwoRSdF8i1WgA54-15" value="" style="endArrow=classic;html=1;rounded=0;exitX=0.194;exitY=-0.034;exitDx=0;exitDy=0;exitPerimeter=0;entryX=0.131;entryY=1.123;entryDx=0;entryDy=0;entryPerimeter=0;" edge="1" parent="1" target="NlZe7WwoRSdF8i1WgA54-13">
          <mxGeometry width="50" height="50" relative="1" as="geometry">
            <mxPoint x="231.3" y="402.39" as="sourcePoint" />
            <mxPoint x="621.3" y="407" as="targetPoint" />
            <Array as="points" />
          </mxGeometry>
        </mxCell>
        <mxCell id="NlZe7WwoRSdF8i1WgA54-19" value="" style="endArrow=open;dashed=1;html=1;rounded=0;endFill=0;strokeWidth=1;strokeColor=default;entryX=0;entryY=0.5;entryDx=0;entryDy=0;" edge="1" parent="1" target="NlZe7WwoRSdF8i1WgA54-21">
          <mxGeometry width="50" height="50" relative="1" as="geometry">
            <mxPoint x="447" y="412.21000000000004" as="sourcePoint" />
            <mxPoint x="567" y="412.21000000000004" as="targetPoint" />
          </mxGeometry>
        </mxCell>
        <mxCell id="NlZe7WwoRSdF8i1WgA54-20" value="&amp;lt;&amp;lt;create&amp;gt;&amp;gt;" style="text;html=1;align=center;verticalAlign=middle;whiteSpace=wrap;rounded=0;" vertex="1" parent="1">
          <mxGeometry x="477" y="391" width="60" height="30" as="geometry" />
        </mxCell>
        <mxCell id="NlZe7WwoRSdF8i1WgA54-21" value="Evento:Event" style="rounded=1;whiteSpace=wrap;html=1;" vertex="1" parent="1">
          <mxGeometry x="557" y="392.04" width="110" height="40" as="geometry" />
        </mxCell>
        <mxCell id="NlZe7WwoRSdF8i1WgA54-22" value="Evento:Event" style="rounded=1;whiteSpace=wrap;html=1;" vertex="1" parent="1">
          <mxGeometry x="557" y="503.21000000000004" width="110" height="40" as="geometry" />
        </mxCell>
        <mxCell id="NlZe7WwoRSdF8i1WgA54-23" value="" style="endArrow=none;dashed=1;html=1;dashPattern=1 3;strokeWidth=2;rounded=0;exitX=0.5;exitY=0;exitDx=0;exitDy=0;" edge="1" parent="1" source="NlZe7WwoRSdF8i1WgA54-22" target="NlZe7WwoRSdF8i1WgA54-21">
          <mxGeometry width="50" height="50" relative="1" as="geometry">
            <mxPoint x="617" y="1581.067142857143" as="sourcePoint" />
            <mxPoint x="617" y="752.21" as="targetPoint" />
          </mxGeometry>
        </mxCell>
        <mxCell id="NlZe7WwoRSdF8i1WgA54-26" value="" style="endArrow=open;dashed=1;html=1;rounded=0;entryX=0.75;entryY=0;entryDx=0;entryDy=0;startArrow=none;startFill=0;endFill=0;exitX=0.5;exitY=1;exitDx=0;exitDy=0;" edge="1" parent="1" source="NlZe7WwoRSdF8i1WgA54-13" target="NlZe7WwoRSdF8i1WgA54-9">
          <mxGeometry width="50" height="50" relative="1" as="geometry">
            <mxPoint x="736.37" y="421.34" as="sourcePoint" />
            <mxPoint x="229.37" y="419.34" as="targetPoint" />
          </mxGeometry>
        </mxCell>
        <mxCell id="NlZe7WwoRSdF8i1WgA54-27" value="7.Confirmação da criação do evento" style="text;html=1;align=center;verticalAlign=middle;whiteSpace=wrap;rounded=0;" vertex="1" parent="1">
          <mxGeometry x="227.99" y="410" width="212.63" height="30" as="geometry" />
        </mxCell>
        <mxCell id="NlZe7WwoRSdF8i1WgA54-28" value="8.Confirmação da criação" style="text;html=1;align=center;verticalAlign=middle;whiteSpace=wrap;rounded=0;" vertex="1" parent="1">
          <mxGeometry x="6.32" y="415" width="214.68" height="30" as="geometry" />
        </mxCell>
        <mxCell id="NlZe7WwoRSdF8i1WgA54-29" value="" style="endArrow=none;dashed=1;html=1;strokeWidth=1;rounded=0;entryX=0.942;entryY=0.931;entryDx=0;entryDy=0;entryPerimeter=0;endFill=0;startArrow=open;startFill=0;" edge="1" parent="1">
          <mxGeometry width="50" height="50" relative="1" as="geometry">
            <mxPoint x="-241" y="433" as="sourcePoint" />
            <mxPoint x="-10" y="433" as="targetPoint" />
          </mxGeometry>
        </mxCell>
        <mxCell id="NlZe7WwoRSdF8i1WgA54-30" value="&lt;span style=&quot;background-color: transparent; color: light-dark(rgb(0, 0, 0), rgb(255, 255, 255));&quot;&gt;9.Confirmação da criação&amp;nbsp;e Exibição&amp;nbsp;da homepage&lt;/span&gt;" style="text;html=1;align=center;verticalAlign=middle;whiteSpace=wrap;rounded=0;" vertex="1" parent="1">
          <mxGeometry x="-214" y="397" width="170" height="40" as="geometry" />
        </mxCell>
        <mxCell id="NlZe7WwoRSdF8i1WgA54-31" value="" style="endArrow=open;html=1;rounded=0;exitX=0.36;exitY=0.79;exitDx=0;exitDy=0;exitPerimeter=0;endFill=0;dashed=1;" edge="1" parent="1">
          <mxGeometry width="50" height="50" relative="1" as="geometry">
            <mxPoint x="223.10000000000014" y="421.6799999999996" as="sourcePoint" />
            <mxPoint x="-1" y="420" as="targetPoint" />
            <Array as="points" />
          </mxGeometry>
        </mxCell>
      </root>
    </mxGraphModel>
  </diagram>
</mxfile>
